<?xml version="1.0" encoding="UTF-8"?>
<svg xmlns="http://www.w3.org/2000/svg" version="1.1" viewBox="0 0 48 39.5">
  <defs>
    <style>
      .cls-1 {
        fill: #fff;
      }
    </style>
  </defs>
  <!-- Generator: Adobe Illustrator 28.7.6, SVG Export Plug-In . SVG Version: 1.2.0 Build 188)  -->
  <g>
    <g id="_레이어_1" data-name="레이어_1">
      <g>
        <polygon class="cls-1" points="31.9 1.2 24.2 1.2 30.1 17.7 34 6.8 31.9 1.2"/>
        <polygon class="cls-1" points="34.2 22.3 33.9 23.5 35.4 27.2 37.7 20.8 34.2 22.3"/>
        <polygon class="cls-1" points="38.9 17.6 37.1 13.6 36.8 14.5 38.4 18.8 38.9 17.6"/>
        <polygon class="cls-1" points="34.9 9.2 30.9 20 32.1 23.3 34.2 22.3 36.8 14.5 34.9 9.2"/>
        <polygon class="cls-1" points="38.4 18.8 36.8 14.5 34.2 22.3 37.7 20.8 38.4 18.8"/>
        <polygon class="cls-1" points="10.7 31 21.6 1.2 13.9 1.2 3 31 3 31 .2 38.6 21.8 38.6 24.5 31 10.7 31"/>
        <polygon class="cls-1" points="3.2 30.6 2.8 31.5 10.3 31.4 10.3 30.3 7.7 30.2 3.2 30.6"/>
        <polygon class="cls-1" points="7.7 38.4 8 38.6 8.2 38.6 11.2 32.2 11.2 31 10.1 31 9.1 33.8 7.7 38.4"/>
        <g>
          <polygon class="cls-1" points="39.8 19.8 36.3 29.4 40.1 38.6 47.8 38.6 39.8 19.8"/>
          <polygon class="cls-1" points="38.9 17.6 38.9 17.6 40.1 14.2 40.8 12.2 40.8 12.2 44.7 1.4 37.7 1.4 34.9 9.2 34.9 9.2 30.1 22.2 24 38.8 31.2 38.8 34.4 29.9 38.9 17.6"/>
        </g>
      </g>
    </g>
  </g>
</svg>